<svg width="807" height="330" viewBox="0 0 807 330" fill="none" xmlns="http://www.w3.org/2000/svg">
<g filter="url(#filter0_ddd_720_90)">
<path d="M464.788 199.375C431.45 199.375 406.25 176.537 406.25 140.05C406.25 91.4875 438.013 55 479.75 55C518.668 55 538.114 86.7969 531.877 129.372C531.527 131.762 529.445 133.488 527.029 133.488H437.261C434.816 133.488 432.776 135.266 432.764 137.711C432.763 138.052 432.763 138.395 432.763 138.737C432.763 162.887 445.625 177.588 466.888 177.588C482.68 177.588 493.834 169.237 500.784 152.753C501.599 150.819 503.458 149.5 505.556 149.5H521.13C524.538 149.5 526.946 152.841 525.678 156.004C513.792 185.631 492.497 199.375 464.788 199.375ZM479.225 75.475C458.905 75.475 444.245 89.8444 437.229 110.256C436.168 113.342 438.562 116.425 441.826 116.425H503.614C506.166 116.425 508.333 114.502 508.438 111.952C509.33 90.2255 498.656 75.475 479.225 75.475Z" fill="url(#paint0_linear_720_90)"/>
</g>
<g filter="url(#filter1_ddd_720_90)">
<path d="M59.3989 198.702C58.96 199.502 58.1196 200 57.2067 200H33.1767C31.2336 200 30.0333 197.88 31.0327 196.214L74.1167 124.377C74.6237 123.532 74.5866 122.467 74.022 121.659L31.4977 60.807C30.3397 59.1499 31.5253 56.875 33.547 56.875H58.1385C58.9667 56.875 59.7411 57.2852 60.2065 57.9703L91.7821 104.455C92.7741 105.916 94.9262 105.916 95.9182 104.455L127.494 57.9703C127.959 57.2852 128.733 56.875 129.562 56.875H152.116C154.125 56.875 155.314 59.1252 154.181 60.7846L112.078 122.453C111.527 123.259 111.496 124.311 111.998 125.148L154.582 196.215C155.581 197.881 154.38 200 152.438 200H127.869C126.962 200 126.127 199.509 125.685 198.717L94.4765 142.689C93.5196 140.972 91.0457 140.98 90.1003 142.704L59.3989 198.702Z" fill="url(#paint1_linear_720_90)"/>
</g>
<g filter="url(#filter2_ddd_720_90)">
<path d="M248.65 200C247.269 200 246.15 198.881 246.15 197.5V180.021C246.15 178.733 244.346 178.234 243.611 179.291C234.621 192.221 220.132 199.375 201.525 199.375C172.65 199.375 153.75 182.838 153.75 157.375C153.75 130.075 175.538 115.9 217.013 115.9C224.61 115.9 229.256 115.9 240.498 115.9C241.878 115.9 243 114.781 243 113.4V107.238C243 87.2875 232.238 76 213.862 76C195.251 76 183.628 86.6024 181.994 104.575C181.873 105.911 180.778 106.975 179.437 106.975H160.295C158.873 106.975 157.733 105.787 157.847 104.37C160.26 74.5899 182.226 55 213.862 55C248.25 55 268.2 74.425 268.2 107.5V197.5C268.2 198.881 267.081 200 265.7 200H248.65ZM178.95 156.588C178.95 171.025 189.713 180.475 206.775 180.475C229.088 180.475 243 166.563 243 145.3V134.938C243 133.557 241.877 132.438 240.497 132.438C230.797 132.438 224.888 132.438 218.588 132.438C192.075 132.438 178.95 140.313 178.95 156.588Z" fill="url(#paint2_linear_720_90)"/>
</g>
<g filter="url(#filter3_ddd_720_90)">
<path d="M305.263 118.263V197.5C305.263 198.881 304.143 200 302.763 200H281.25C279.869 200 278.75 198.881 278.75 197.5V57.5C278.75 56.1193 279.869 55 281.25 55H300.925C302.306 55 303.425 56.1193 303.425 57.5V71.8281C303.425 74.3538 306.984 75.4371 308.609 73.504C318.17 62.1354 331.79 55 347.787 55C376.4 55 395.3 73.375 395.3 106.712V197.5C395.3 198.881 394.181 200 392.8 200H371.288C369.907 200 368.788 198.881 368.788 197.5V115.638C368.788 91.75 358.288 78.3625 338.6 78.3625C320.488 78.3625 305.263 93.5875 305.263 118.263Z" fill="url(#paint3_linear_720_90)"/>
</g>
<g filter="url(#filter4_ddd_720_90)">
<path d="M633.2 136.9V57.5C633.2 56.1193 634.319 55 635.7 55H657.213C658.593 55 659.713 56.1193 659.713 57.5V197.5C659.713 198.881 658.593 200 657.213 200H637.538C636.157 200 635.038 198.881 635.038 197.5V182.262C635.038 180.787 631.847 180.161 631.063 181.409C623.501 193.435 608.385 200 593.071 200C564.984 200 545 180.213 545 144.512V57.5C545 56.1193 546.119 55 547.5 55H569.013C570.393 55 571.513 56.1193 571.513 57.5V139.263C571.513 163.413 583.588 173.388 600.913 173.388C618.763 173.388 633.2 158.688 633.2 136.9Z" fill="url(#paint4_linear_720_90)"/>
</g>
<g filter="url(#filter5_ddd_720_90)">
<path d="M699.013 124.825V196.875C699.013 198.256 697.893 199.375 696.513 199.375H675C673.619 199.375 672.5 198.256 672.5 196.875V57.5C672.5 56.1193 673.619 55 675 55H694.675C696.056 55 697.175 56.1193 697.175 57.5V81.0064C697.175 82.3217 699.061 82.8048 699.769 81.6966C709.902 65.8451 728.214 55.8221 748.225 55.0483C749.604 54.995 750.725 56.1193 750.725 57.5V79.9275C750.725 81.3598 749.523 82.4956 748.091 82.4614C719.53 81.7795 699.013 95.0212 699.013 124.825Z" fill="url(#paint5_linear_720_90)"/>
</g>
<path d="M781.25 4.9375C786.569 4.94318 791.668 7.05909 795.43 10.8203C799.191 14.5815 801.307 19.6808 801.312 25C801.312 28.968 800.136 32.8472 797.932 36.1465C795.727 39.4456 792.594 42.0167 788.928 43.5352C785.262 45.0536 781.228 45.4509 777.336 44.6768C773.444 43.9026 769.869 41.9923 767.063 39.1865C764.258 36.3808 762.347 32.8058 761.573 28.9141C760.799 25.0223 761.196 20.9882 762.715 17.3223C764.233 13.6564 766.804 10.5228 770.104 8.31836C773.196 6.25171 776.799 5.08857 780.507 4.95117L781.25 4.9375ZM787.923 8.88965C784.737 7.56993 781.23 7.22465 777.848 7.89746C774.465 8.57035 771.358 10.2313 768.92 12.6699C766.481 15.1085 764.82 18.2153 764.147 21.5977C763.475 24.9801 763.82 28.4866 765.14 31.6729C766.459 34.8591 768.695 37.583 771.562 39.499C774.251 41.2952 777.382 42.3064 780.604 42.4258L781.25 42.4375C785.873 42.4323 790.305 40.5932 793.574 37.3242C796.843 34.0552 798.682 29.623 798.688 25C798.688 21.5513 797.665 18.18 795.749 15.3125C793.833 12.4449 791.109 10.2095 787.923 8.88965ZM770.312 19H776.562C776.911 19 777.244 19.1386 777.49 19.3848C777.736 19.6309 777.875 19.9644 777.875 20.3125C777.875 20.6606 777.736 20.9941 777.49 21.2402C777.244 21.4864 776.911 21.625 776.562 21.625H774.75V29.6875C774.75 30.0356 774.611 30.3691 774.365 30.6152C774.119 30.8614 773.786 31 773.438 31C773.089 31 772.756 30.8614 772.51 30.6152C772.264 30.3691 772.125 30.0356 772.125 29.6875V21.625H770.312C769.964 21.625 769.631 21.4864 769.385 21.2402C769.139 20.9941 769 20.6606 769 20.3125C769 19.9644 769.139 19.6309 769.385 19.3848C769.631 19.1386 769.964 19 770.312 19ZM791.87 19.043C792.128 18.9787 792.4 18.9943 792.649 19.0879C792.899 19.1817 793.114 19.3496 793.266 19.5684C793.399 19.7598 793.478 19.9827 793.496 20.2139L793.5 20.3135V29.6875C793.5 30.0356 793.361 30.3691 793.115 30.6152C792.869 30.8614 792.536 31 792.188 31C791.839 31 791.506 30.8614 791.26 30.6152C791.014 30.3691 790.875 30.0356 790.875 29.6875V23.8057L790.437 24.3057L787.702 27.4307C787.579 27.57 787.428 27.6823 787.259 27.7588C787.089 27.8354 786.905 27.875 786.719 27.875C786.533 27.875 786.348 27.8354 786.179 27.7588C786.009 27.6822 785.858 27.5702 785.734 27.4307H785.735L783.001 24.3057L782.562 23.8057V29.6875C782.562 30.0356 782.424 30.3691 782.178 30.6152C781.932 30.8614 781.598 31 781.25 31C780.902 31 780.568 30.8614 780.322 30.6152C780.076 30.3691 779.938 30.0356 779.938 29.6875V20.3135C779.938 20.0472 780.02 19.7871 780.172 19.5684C780.324 19.3496 780.539 19.1817 780.788 19.0879C781.037 18.9943 781.309 18.9787 781.567 19.043C781.825 19.1072 782.057 19.2482 782.233 19.4473V19.4482L786.53 24.3545L786.719 24.5693L786.907 24.3545L791.203 19.4473C791.379 19.248 791.612 19.1073 791.87 19.043Z" fill="url(#paint6_linear_720_90)" stroke="#0B60B5" stroke-width="0.5"/>
<defs>
<filter id="filter0_ddd_720_90" x="376.25" y="49.636" width="186.774" height="279.739" filterUnits="userSpaceOnUse" color-interpolation-filters="sRGB">
<feFlood flood-opacity="0" result="BackgroundImageFix"/>
<feColorMatrix in="SourceAlpha" type="matrix" values="0 0 0 0 0 0 0 0 0 0 0 0 0 0 0 0 0 0 127 0" result="hardAlpha"/>
<feOffset dy="4.02299"/>
<feGaussianBlur stdDeviation="4.69349"/>
<feColorMatrix type="matrix" values="0 0 0 0 0 0 0 0 0 0 0 0 0 0 0 0 0 0 0.1 0"/>
<feBlend mode="normal" in2="BackgroundImageFix" result="effect1_dropShadow_720_90"/>
<feColorMatrix in="SourceAlpha" type="matrix" values="0 0 0 0 0 0 0 0 0 0 0 0 0 0 0 0 0 0 127 0" result="hardAlpha"/>
<feOffset dy="15"/>
<feGaussianBlur stdDeviation="7.5"/>
<feColorMatrix type="matrix" values="0 0 0 0 0 0 0 0 0 0 0 0 0 0 0 0 0 0 0.08 0"/>
<feBlend mode="normal" in2="effect1_dropShadow_720_90" result="effect2_dropShadow_720_90"/>
<feColorMatrix in="SourceAlpha" type="matrix" values="0 0 0 0 0 0 0 0 0 0 0 0 0 0 0 0 0 0 127 0" result="hardAlpha"/>
<feOffset dy="100"/>
<feGaussianBlur stdDeviation="15"/>
<feColorMatrix type="matrix" values="0 0 0 0 0 0 0 0 0 0 0 0 0 0 0 0 0 0 0.01 0"/>
<feBlend mode="normal" in2="effect2_dropShadow_720_90" result="effect3_dropShadow_720_90"/>
<feBlend mode="normal" in="SourceGraphic" in2="effect3_dropShadow_720_90" result="shape"/>
</filter>
<filter id="filter1_ddd_720_90" x="0.672791" y="51.511" width="184.269" height="278.489" filterUnits="userSpaceOnUse" color-interpolation-filters="sRGB">
<feFlood flood-opacity="0" result="BackgroundImageFix"/>
<feColorMatrix in="SourceAlpha" type="matrix" values="0 0 0 0 0 0 0 0 0 0 0 0 0 0 0 0 0 0 127 0" result="hardAlpha"/>
<feOffset dy="4.02299"/>
<feGaussianBlur stdDeviation="4.69349"/>
<feColorMatrix type="matrix" values="0 0 0 0 0 0 0 0 0 0 0 0 0 0 0 0 0 0 0.1 0"/>
<feBlend mode="normal" in2="BackgroundImageFix" result="effect1_dropShadow_720_90"/>
<feColorMatrix in="SourceAlpha" type="matrix" values="0 0 0 0 0 0 0 0 0 0 0 0 0 0 0 0 0 0 127 0" result="hardAlpha"/>
<feOffset dy="15"/>
<feGaussianBlur stdDeviation="7.5"/>
<feColorMatrix type="matrix" values="0 0 0 0 0 0 0 0 0 0 0 0 0 0 0 0 0 0 0.08 0"/>
<feBlend mode="normal" in2="effect1_dropShadow_720_90" result="effect2_dropShadow_720_90"/>
<feColorMatrix in="SourceAlpha" type="matrix" values="0 0 0 0 0 0 0 0 0 0 0 0 0 0 0 0 0 0 127 0" result="hardAlpha"/>
<feOffset dy="100"/>
<feGaussianBlur stdDeviation="15"/>
<feColorMatrix type="matrix" values="0 0 0 0 0 0 0 0 0 0 0 0 0 0 0 0 0 0 0.01 0"/>
<feBlend mode="normal" in2="effect2_dropShadow_720_90" result="effect3_dropShadow_720_90"/>
<feBlend mode="normal" in="SourceGraphic" in2="effect3_dropShadow_720_90" result="shape"/>
</filter>
<filter id="filter2_ddd_720_90" x="123.75" y="49.636" width="174.45" height="280.364" filterUnits="userSpaceOnUse" color-interpolation-filters="sRGB">
<feFlood flood-opacity="0" result="BackgroundImageFix"/>
<feColorMatrix in="SourceAlpha" type="matrix" values="0 0 0 0 0 0 0 0 0 0 0 0 0 0 0 0 0 0 127 0" result="hardAlpha"/>
<feOffset dy="4.02299"/>
<feGaussianBlur stdDeviation="4.69349"/>
<feColorMatrix type="matrix" values="0 0 0 0 0 0 0 0 0 0 0 0 0 0 0 0 0 0 0.1 0"/>
<feBlend mode="normal" in2="BackgroundImageFix" result="effect1_dropShadow_720_90"/>
<feColorMatrix in="SourceAlpha" type="matrix" values="0 0 0 0 0 0 0 0 0 0 0 0 0 0 0 0 0 0 127 0" result="hardAlpha"/>
<feOffset dy="15"/>
<feGaussianBlur stdDeviation="7.5"/>
<feColorMatrix type="matrix" values="0 0 0 0 0 0 0 0 0 0 0 0 0 0 0 0 0 0 0.08 0"/>
<feBlend mode="normal" in2="effect1_dropShadow_720_90" result="effect2_dropShadow_720_90"/>
<feColorMatrix in="SourceAlpha" type="matrix" values="0 0 0 0 0 0 0 0 0 0 0 0 0 0 0 0 0 0 127 0" result="hardAlpha"/>
<feOffset dy="100"/>
<feGaussianBlur stdDeviation="15"/>
<feColorMatrix type="matrix" values="0 0 0 0 0 0 0 0 0 0 0 0 0 0 0 0 0 0 0.01 0"/>
<feBlend mode="normal" in2="effect2_dropShadow_720_90" result="effect3_dropShadow_720_90"/>
<feBlend mode="normal" in="SourceGraphic" in2="effect3_dropShadow_720_90" result="shape"/>
</filter>
<filter id="filter3_ddd_720_90" x="248.75" y="49.636" width="176.55" height="280.364" filterUnits="userSpaceOnUse" color-interpolation-filters="sRGB">
<feFlood flood-opacity="0" result="BackgroundImageFix"/>
<feColorMatrix in="SourceAlpha" type="matrix" values="0 0 0 0 0 0 0 0 0 0 0 0 0 0 0 0 0 0 127 0" result="hardAlpha"/>
<feOffset dy="4.02299"/>
<feGaussianBlur stdDeviation="4.69349"/>
<feColorMatrix type="matrix" values="0 0 0 0 0 0 0 0 0 0 0 0 0 0 0 0 0 0 0.1 0"/>
<feBlend mode="normal" in2="BackgroundImageFix" result="effect1_dropShadow_720_90"/>
<feColorMatrix in="SourceAlpha" type="matrix" values="0 0 0 0 0 0 0 0 0 0 0 0 0 0 0 0 0 0 127 0" result="hardAlpha"/>
<feOffset dy="15"/>
<feGaussianBlur stdDeviation="7.5"/>
<feColorMatrix type="matrix" values="0 0 0 0 0 0 0 0 0 0 0 0 0 0 0 0 0 0 0.08 0"/>
<feBlend mode="normal" in2="effect1_dropShadow_720_90" result="effect2_dropShadow_720_90"/>
<feColorMatrix in="SourceAlpha" type="matrix" values="0 0 0 0 0 0 0 0 0 0 0 0 0 0 0 0 0 0 127 0" result="hardAlpha"/>
<feOffset dy="100"/>
<feGaussianBlur stdDeviation="15"/>
<feColorMatrix type="matrix" values="0 0 0 0 0 0 0 0 0 0 0 0 0 0 0 0 0 0 0.01 0"/>
<feBlend mode="normal" in2="effect2_dropShadow_720_90" result="effect3_dropShadow_720_90"/>
<feBlend mode="normal" in="SourceGraphic" in2="effect3_dropShadow_720_90" result="shape"/>
</filter>
<filter id="filter4_ddd_720_90" x="515" y="49.636" width="174.713" height="280.364" filterUnits="userSpaceOnUse" color-interpolation-filters="sRGB">
<feFlood flood-opacity="0" result="BackgroundImageFix"/>
<feColorMatrix in="SourceAlpha" type="matrix" values="0 0 0 0 0 0 0 0 0 0 0 0 0 0 0 0 0 0 127 0" result="hardAlpha"/>
<feOffset dy="4.02299"/>
<feGaussianBlur stdDeviation="4.69349"/>
<feColorMatrix type="matrix" values="0 0 0 0 0 0 0 0 0 0 0 0 0 0 0 0 0 0 0.1 0"/>
<feBlend mode="normal" in2="BackgroundImageFix" result="effect1_dropShadow_720_90"/>
<feColorMatrix in="SourceAlpha" type="matrix" values="0 0 0 0 0 0 0 0 0 0 0 0 0 0 0 0 0 0 127 0" result="hardAlpha"/>
<feOffset dy="15"/>
<feGaussianBlur stdDeviation="7.5"/>
<feColorMatrix type="matrix" values="0 0 0 0 0 0 0 0 0 0 0 0 0 0 0 0 0 0 0.08 0"/>
<feBlend mode="normal" in2="effect1_dropShadow_720_90" result="effect2_dropShadow_720_90"/>
<feColorMatrix in="SourceAlpha" type="matrix" values="0 0 0 0 0 0 0 0 0 0 0 0 0 0 0 0 0 0 127 0" result="hardAlpha"/>
<feOffset dy="100"/>
<feGaussianBlur stdDeviation="15"/>
<feColorMatrix type="matrix" values="0 0 0 0 0 0 0 0 0 0 0 0 0 0 0 0 0 0 0.01 0"/>
<feBlend mode="normal" in2="effect2_dropShadow_720_90" result="effect3_dropShadow_720_90"/>
<feBlend mode="normal" in="SourceGraphic" in2="effect3_dropShadow_720_90" result="shape"/>
</filter>
<filter id="filter5_ddd_720_90" x="642.5" y="49.636" width="138.225" height="279.739" filterUnits="userSpaceOnUse" color-interpolation-filters="sRGB">
<feFlood flood-opacity="0" result="BackgroundImageFix"/>
<feColorMatrix in="SourceAlpha" type="matrix" values="0 0 0 0 0 0 0 0 0 0 0 0 0 0 0 0 0 0 127 0" result="hardAlpha"/>
<feOffset dy="4.02299"/>
<feGaussianBlur stdDeviation="4.69349"/>
<feColorMatrix type="matrix" values="0 0 0 0 0 0 0 0 0 0 0 0 0 0 0 0 0 0 0.1 0"/>
<feBlend mode="normal" in2="BackgroundImageFix" result="effect1_dropShadow_720_90"/>
<feColorMatrix in="SourceAlpha" type="matrix" values="0 0 0 0 0 0 0 0 0 0 0 0 0 0 0 0 0 0 127 0" result="hardAlpha"/>
<feOffset dy="15"/>
<feGaussianBlur stdDeviation="7.5"/>
<feColorMatrix type="matrix" values="0 0 0 0 0 0 0 0 0 0 0 0 0 0 0 0 0 0 0.08 0"/>
<feBlend mode="normal" in2="effect1_dropShadow_720_90" result="effect2_dropShadow_720_90"/>
<feColorMatrix in="SourceAlpha" type="matrix" values="0 0 0 0 0 0 0 0 0 0 0 0 0 0 0 0 0 0 127 0" result="hardAlpha"/>
<feOffset dy="100"/>
<feGaussianBlur stdDeviation="15"/>
<feColorMatrix type="matrix" values="0 0 0 0 0 0 0 0 0 0 0 0 0 0 0 0 0 0 0.01 0"/>
<feBlend mode="normal" in2="effect2_dropShadow_720_90" result="effect3_dropShadow_720_90"/>
<feBlend mode="normal" in="SourceGraphic" in2="effect3_dropShadow_720_90" result="shape"/>
</filter>
<linearGradient id="paint0_linear_720_90" x1="469.34" y1="-7.4154" x2="469.649" y2="199.375" gradientUnits="userSpaceOnUse">
<stop stop-color="#121212"/>
<stop offset="1" stop-color="#2A2A2A"/>
</linearGradient>
<linearGradient id="paint1_linear_720_90" x1="92.5" y1="-5" x2="92.8001" y2="200" gradientUnits="userSpaceOnUse">
<stop stop-color="#121212"/>
<stop offset="1" stop-color="#2A2A2A"/>
</linearGradient>
<linearGradient id="paint2_linear_720_90" x1="210.707" y1="-7.68559" x2="211.052" y2="200" gradientUnits="userSpaceOnUse">
<stop stop-color="#121212"/>
<stop offset="1" stop-color="#2A2A2A"/>
</linearGradient>
<linearGradient id="paint3_linear_720_90" x1="336.752" y1="-7.68559" x2="337.09" y2="200" gradientUnits="userSpaceOnUse">
<stop stop-color="#121212"/>
<stop offset="1" stop-color="#2A2A2A"/>
</linearGradient>
<linearGradient id="paint4_linear_720_90" x1="602.088" y1="-7.68559" x2="602.431" y2="200" gradientUnits="userSpaceOnUse">
<stop stop-color="#121212"/>
<stop offset="1" stop-color="#2A2A2A"/>
</linearGradient>
<linearGradient id="paint5_linear_720_90" x1="711.429" y1="-7.41539" x2="711.929" y2="199.374" gradientUnits="userSpaceOnUse">
<stop stop-color="#121212"/>
<stop offset="1" stop-color="#2A2A2A"/>
</linearGradient>
<linearGradient id="paint6_linear_720_90" x1="781.155" y1="-12.8753" x2="781.231" y2="45.3125" gradientUnits="userSpaceOnUse">
<stop stop-color="#121212"/>
<stop offset="1" stop-color="#2A2A2A"/>
</linearGradient>
</defs>
</svg>
